<svg width="769" height="343" viewBox="0 0 769 343" fill="none" xmlns="http://www.w3.org/2000/svg">
<g clip-path="url(#clip0_866_61)">
<g clip-path="url(#clip1_866_61)">
<g filter="url(#filter0_d_866_61)">
<path d="M359.632 251.55L353.24 287.998H350.52L332.84 254.27H328.624L315.296 330.566L324.136 339.95L323.592 342.67H272.592L273.136 339.95L285.24 330.566L298.568 254.27H294.488L264.976 287.998H262.256L268.648 251.55H359.632ZM437.494 333.966C439.126 333.966 440.713 333.331 442.254 332.062L442.934 332.878C438.219 340.766 431.057 344.71 421.446 344.71C419.633 344.71 417.865 344.483 416.142 344.03C414.419 343.577 412.606 342.806 410.702 341.718C408.889 340.539 407.438 338.726 406.35 336.278C405.262 333.83 404.763 330.838 404.854 327.302H404.31C401.137 332.833 397.555 337.139 393.566 340.222C389.577 343.214 384.545 344.71 378.47 344.71C371.851 344.71 366.955 342.625 363.782 338.454C360.699 334.283 359.929 327.937 361.47 319.414L367.318 285.686L359.974 276.302L360.518 273.582H398.87L390.846 318.734C389.486 326.078 391.073 329.75 395.606 329.75C398.054 329.75 400.23 328.571 402.134 326.214C404.129 323.766 405.489 320.955 406.214 317.782L413.966 273.582H443.206L433.958 326.622C433.595 328.798 433.731 330.566 434.366 331.926C435.091 333.286 436.134 333.966 437.494 333.966ZM483.186 333.966C484.818 333.966 486.405 333.331 487.946 332.062L488.626 332.878C483.911 340.766 476.749 344.71 467.138 344.71C465.143 344.71 463.194 344.438 461.29 343.894C459.386 343.35 457.437 342.353 455.442 340.902C453.447 339.451 451.997 337.185 451.09 334.102C450.274 330.929 450.274 327.075 451.09 322.542L461.562 263.79L454.082 254.27L454.626 251.55H492.978L479.65 326.622C479.287 328.798 479.423 330.566 480.058 331.926C480.783 333.286 481.826 333.966 483.186 333.966ZM516.889 344.71C509.636 344.71 503.833 342.353 499.481 337.638C495.22 332.833 493.089 326.033 493.089 317.238C493.089 304.273 497.532 293.438 506.417 284.734C515.303 275.939 526.183 271.542 539.057 271.542C544.044 271.542 548.396 272.313 552.113 273.854C555.831 275.395 559.503 277.934 563.129 281.47L580.537 271.542H583.529L573.737 326.622C573.375 328.889 573.511 330.702 574.145 332.062C574.871 333.331 575.959 333.966 577.409 333.966C578.951 333.966 580.492 333.331 582.033 332.062L582.713 332.878C578.089 340.766 571.108 344.71 561.769 344.71C556.692 344.71 552.431 343.35 548.985 340.63C545.54 337.819 544.135 332.923 544.769 325.942L544.905 324.582C542.367 330.203 538.649 334.963 533.753 338.862C528.857 342.761 523.236 344.71 516.889 344.71ZM531.849 331.382C535.295 331.382 538.287 329.433 540.825 325.534C543.364 321.635 545.359 316.241 546.809 309.35L547.081 308.534C547.716 305.27 548.26 302.414 548.713 299.966C549.167 297.518 549.529 294.889 549.801 292.078C550.164 289.267 550.255 286.91 550.073 285.006C549.983 283.011 549.711 281.153 549.257 279.43C548.804 277.707 548.033 276.438 546.945 275.622C545.857 274.715 544.452 274.262 542.729 274.262C539.193 274.262 535.839 276.846 532.665 282.014C529.583 287.091 527.225 292.849 525.593 299.286C524.052 305.633 523.281 311.254 523.281 316.15C523.281 326.305 526.137 331.382 531.849 331.382ZM590.705 295.206C598.955 291.761 604.486 289.041 607.297 287.046C610.198 284.961 612.51 282.513 614.233 279.702L614.097 279.294C611.83 279.929 610.062 280.246 608.793 280.246C604.622 280.246 601.131 278.977 598.321 276.438C595.51 273.899 594.105 270.545 594.105 266.374C594.105 261.75 595.601 257.897 598.593 254.814C601.585 251.641 605.438 250.054 610.153 250.054C614.958 250.054 618.857 251.595 621.849 254.678C624.841 257.67 626.382 261.387 626.473 265.83C626.473 269.366 625.793 272.63 624.433 275.622C623.163 278.614 621.577 281.107 619.673 283.102C617.769 285.097 615.139 287.046 611.785 288.95C608.43 290.763 605.302 292.259 602.401 293.438C599.59 294.526 595.963 295.795 591.521 297.246L590.705 295.206ZM670.852 298.878C676.02 301.598 679.783 304.499 682.14 307.582C684.588 310.665 685.812 314.699 685.812 319.686C685.812 323.766 684.951 327.393 683.228 330.566C681.596 333.649 679.511 336.051 676.972 337.774C674.524 339.497 671.623 340.902 668.268 341.99C664.913 343.078 661.831 343.803 659.02 344.166C656.209 344.529 653.353 344.71 650.452 344.71C647.369 344.71 644.332 344.438 641.34 343.894C638.348 343.441 636.081 342.987 634.54 342.534C633.089 342.081 630.868 341.31 627.876 340.222C624.884 339.134 623.116 338.499 622.572 338.318L626.924 315.198H629.236L648.956 341.718H649.5C654.94 341.718 657.66 338.726 657.66 332.742C657.66 328.118 655.393 324.582 650.86 322.134L644.74 318.734C639.209 315.742 635.129 312.75 632.5 309.758C629.871 306.675 628.556 302.55 628.556 297.382C628.556 292.758 629.644 288.723 631.82 285.278C633.996 281.742 636.852 279.022 640.388 277.118C643.924 275.214 647.551 273.809 651.268 272.902C654.985 271.995 658.748 271.542 662.556 271.542C672.348 271.542 681.777 273.627 690.844 277.798L686.9 299.966H684.452L664.596 274.126H663.644C658.385 274.126 655.756 277.617 655.756 284.598C655.756 288.769 658.385 292.259 663.644 295.07L670.852 298.878Z" fill="white"/>
</g>
<g filter="url(#filter1_d_866_61)">
<path d="M48.16 300.35L43.648 318.206L38.272 340.67H21.664L4.96 274.526H21.184L26.08 298.526L30.112 318.206H30.784L35.776 298.238L41.824 274.526H55.552L61.984 299.774L66.592 318.206H67.264L71.008 299.678L76.192 274.526H92.416L75.616 340.67H59.104L53.728 318.206L48.928 300.35H48.16ZM116.288 274.526V340.67H101.024V274.526H116.288ZM157.024 288.254V340.67H141.76V288.254H124.96V274.526H173.728V288.254H157.024ZM216.863 340.67V313.886H195.743V340.67H180.479V274.526H195.743V300.158H216.863V274.526H232.319V340.67H216.863Z" fill="white"/>
</g>
<g filter="url(#filter2_d_866_61)">
<path d="M-0.0479997 211.67V145.526H12.912V199.958H45.648V211.67H-0.0479997ZM54.0725 145.526H99.6725V157.334H67.2245V172.502H94.9685V184.31H67.2245V199.958H99.6725V211.67H54.0725V145.526ZM137.591 157.43V211.67H124.439V157.43H106.871V145.526H155.063V157.43H137.591ZM164.586 162.902C166.25 161.686 167.594 160.31 168.618 158.774C169.642 157.174 170.25 155.606 170.442 154.07C168.97 153.75 167.69 152.982 166.602 151.766C165.578 150.486 165.066 148.886 165.066 146.966C165.066 144.854 165.834 143.094 167.37 141.686C168.906 140.214 170.73 139.478 172.842 139.478C175.53 139.478 177.61 140.406 179.082 142.262C180.554 144.118 181.29 146.454 181.29 149.27C181.29 151.19 180.97 153.11 180.33 155.03C179.754 156.95 178.922 158.774 177.834 160.502C176.746 162.166 175.434 163.702 173.898 165.11C172.362 166.518 170.666 167.702 168.81 168.662L164.586 162.902ZM243.459 192.566C243.459 195.766 242.819 198.614 241.539 201.11C240.259 203.542 238.467 205.59 236.163 207.254C233.923 208.854 231.267 210.07 228.195 210.902C225.123 211.734 221.795 212.15 218.211 212.15C213.411 212.15 208.899 211.478 204.675 210.134C200.451 208.79 196.323 206.422 192.291 203.03L199.683 193.43C202.563 195.67 205.539 197.398 208.611 198.614C211.747 199.766 214.851 200.342 217.923 200.342C220.035 200.342 221.827 200.15 223.299 199.766C224.771 199.318 225.955 198.742 226.851 198.038C227.747 197.27 228.387 196.438 228.771 195.542C229.219 194.582 229.443 193.622 229.443 192.662C229.443 191.19 229.059 189.974 228.291 189.014C227.587 188.054 226.531 187.254 225.123 186.614C223.779 185.91 222.147 185.302 220.227 184.79C218.371 184.214 216.291 183.606 213.987 182.966C211.427 182.326 208.963 181.558 206.595 180.662C204.291 179.702 202.243 178.518 200.451 177.11C198.659 175.638 197.219 173.878 196.131 171.83C195.107 169.718 194.595 167.19 194.595 164.246C194.595 161.366 195.139 158.71 196.227 156.278C197.315 153.846 198.819 151.766 200.739 150.038C202.723 148.246 205.091 146.87 207.843 145.91C210.659 144.886 213.763 144.374 217.155 144.374C221.187 144.31 225.219 144.694 229.251 145.526C233.283 146.358 237.187 148.022 240.963 150.518L235.203 161.078C232.131 159.222 229.219 157.942 226.467 157.238C223.715 156.534 220.995 156.182 218.307 156.182C217.027 156.182 215.747 156.342 214.467 156.662C213.251 156.982 212.131 157.462 211.107 158.102C210.147 158.678 209.347 159.478 208.707 160.502C208.131 161.462 207.843 162.614 207.843 163.958C207.843 165.302 208.163 166.454 208.803 167.414C209.507 168.31 210.499 169.11 211.779 169.814C213.059 170.454 214.595 171.03 216.387 171.542C218.243 172.054 220.323 172.566 222.627 173.078C229.603 174.614 234.819 176.95 238.275 180.086C241.731 183.222 243.459 187.382 243.459 192.566ZM329.399 190.454C329.399 193.91 328.727 196.982 327.383 199.67C326.103 202.294 324.343 204.502 322.103 206.294C319.927 208.086 317.399 209.43 314.519 210.326C311.703 211.222 308.791 211.67 305.783 211.67H280.823V145.526H305.879C308.887 145.526 311.799 145.974 314.615 146.87C317.495 147.702 320.023 149.014 322.199 150.806C324.375 152.598 326.103 154.838 327.383 157.526C328.727 160.15 329.399 163.222 329.399 166.742V190.454ZM316.055 169.238C316.055 167.062 315.671 165.238 314.903 163.766C314.199 162.23 313.271 160.982 312.119 160.022C310.967 159.062 309.655 158.39 308.183 158.006C306.775 157.558 305.335 157.334 303.863 157.334H293.879V200.054H303.863C305.271 200.054 306.679 199.862 308.087 199.478C309.559 199.03 310.871 198.326 312.023 197.366C313.239 196.406 314.199 195.19 314.903 193.718C315.671 192.182 316.055 190.294 316.055 188.054V169.238ZM392.377 190.55C392.377 194.134 391.705 197.27 390.361 199.958C389.017 202.646 387.193 204.918 384.889 206.774C382.585 208.63 379.865 210.038 376.729 210.998C373.657 211.894 370.393 212.342 366.937 212.342C363.481 212.342 360.185 211.894 357.049 210.998C353.977 210.038 351.289 208.63 348.984 206.774C346.681 204.918 344.857 202.646 343.513 199.958C342.169 197.27 341.497 194.134 341.497 190.55V166.262C341.497 162.742 342.201 159.638 343.609 156.95C345.017 154.262 346.905 152.022 349.273 150.23C351.641 148.438 354.361 147.094 357.433 146.198C360.505 145.302 363.673 144.854 366.937 144.854C370.201 144.854 373.369 145.334 376.441 146.294C379.513 147.254 382.233 148.662 384.601 150.518C386.969 152.31 388.857 154.582 390.265 157.334C391.673 160.022 392.377 163.126 392.377 166.646V190.55ZM379.129 168.95C379.129 166.774 378.777 164.95 378.073 163.478C377.369 161.942 376.441 160.694 375.289 159.734C374.137 158.774 372.825 158.07 371.353 157.622C369.945 157.174 368.473 156.95 366.937 156.95C365.401 156.95 363.897 157.174 362.425 157.622C360.953 158.07 359.641 158.774 358.489 159.734C357.337 160.694 356.409 161.942 355.705 163.478C355.001 164.95 354.649 166.774 354.649 168.95V188.246C354.649 190.422 355.001 192.278 355.705 193.814C356.409 195.35 357.337 196.598 358.489 197.558C359.641 198.518 360.953 199.222 362.425 199.67C363.897 200.054 365.401 200.246 366.937 200.246C368.473 200.246 369.945 200.054 371.353 199.67C372.825 199.222 374.137 198.518 375.289 197.558C376.441 196.598 377.369 195.35 378.073 193.814C378.777 192.278 379.129 190.422 379.129 188.246V168.95Z" fill="white"/>
</g>
<g filter="url(#filter3_d_866_61)">
<path d="M455.624 156.182C453.64 158.102 451.112 159.062 448.04 159.062C444.968 159.062 442.44 158.102 440.456 156.182C438.472 154.198 437.48 151.734 437.48 148.79C437.48 145.974 438.472 143.574 440.456 141.59C442.44 139.542 444.968 138.518 448.04 138.518C451.112 138.518 453.64 139.542 455.624 141.59C457.672 143.574 458.696 145.974 458.696 148.79C458.696 151.734 457.672 154.198 455.624 156.182ZM455.912 162.902L449.288 200.342C449.032 201.878 449.128 203.126 449.576 204.086C450.088 205.046 450.824 205.526 451.784 205.526C452.936 205.526 454.056 205.078 455.144 204.182L455.624 204.758C452.296 210.326 447.24 213.11 440.456 213.11C439.048 213.11 437.672 212.918 436.328 212.534C434.984 212.15 433.608 211.446 432.2 210.422C430.792 209.398 429.768 207.798 429.128 205.622C428.552 203.382 428.552 200.662 429.128 197.462L433.736 171.542L428.456 164.822L428.84 162.902H455.912ZM488.224 164.822L482.656 196.214C482.336 198.198 482.528 199.798 483.232 201.014C483.936 202.166 485.056 202.742 486.592 202.742C488.576 202.742 490.752 202.006 493.12 200.534L493.6 201.11C489.632 209.11 483.744 213.11 475.936 213.11C471.072 213.11 467.296 211.574 464.608 208.502C461.984 205.43 461.184 201.014 462.208 195.254L467.488 164.822H462.688L462.976 162.902H467.872L489.184 147.35H491.296L488.512 162.902H500.704L500.416 164.822H488.224Z" fill="white"/>
</g>
<path d="M221 356.908C400.726 357.332 384.182 383.227 572 356.908" stroke="#C09D59" stroke-width="5" stroke-linecap="round"/>
</g>
</g>
<defs>
<filter id="filter0_d_866_61" x="247.258" y="250.055" width="458.586" height="124.654" filterUnits="userSpaceOnUse" color-interpolation-filters="sRGB">
<feFlood flood-opacity="0" result="BackgroundImageFix"/>
<feColorMatrix in="SourceAlpha" type="matrix" values="0 0 0 0 0 0 0 0 0 0 0 0 0 0 0 0 0 0 127 0" result="hardAlpha"/>
<feOffset dy="15"/>
<feGaussianBlur stdDeviation="7.5"/>
<feComposite in2="hardAlpha" operator="out"/>
<feColorMatrix type="matrix" values="0 0 0 0 0 0 0 0 0 0 0 0 0 0 0 0 0 0 0.16 0"/>
<feBlend mode="normal" in2="BackgroundImageFix" result="effect1_dropShadow_866_61"/>
<feBlend mode="normal" in="SourceGraphic" in2="effect1_dropShadow_866_61" result="shape"/>
</filter>
<filter id="filter1_d_866_61" x="-10.0391" y="274.525" width="257.359" height="96.1445" filterUnits="userSpaceOnUse" color-interpolation-filters="sRGB">
<feFlood flood-opacity="0" result="BackgroundImageFix"/>
<feColorMatrix in="SourceAlpha" type="matrix" values="0 0 0 0 0 0 0 0 0 0 0 0 0 0 0 0 0 0 127 0" result="hardAlpha"/>
<feOffset dy="15"/>
<feGaussianBlur stdDeviation="7.5"/>
<feComposite in2="hardAlpha" operator="out"/>
<feColorMatrix type="matrix" values="0 0 0 0 0 0 0 0 0 0 0 0 0 0 0 0 0 0 0.16 0"/>
<feBlend mode="normal" in2="BackgroundImageFix" result="effect1_dropShadow_866_61"/>
<feBlend mode="normal" in="SourceGraphic" in2="effect1_dropShadow_866_61" result="shape"/>
</filter>
<filter id="filter2_d_866_61" x="-10.0469" y="130.479" width="412.422" height="92.8633" filterUnits="userSpaceOnUse" color-interpolation-filters="sRGB">
<feFlood flood-opacity="0" result="BackgroundImageFix"/>
<feColorMatrix in="SourceAlpha" type="matrix" values="0 0 0 0 0 0 0 0 0 0 0 0 0 0 0 0 0 0 127 0" result="hardAlpha"/>
<feOffset dy="1"/>
<feGaussianBlur stdDeviation="5"/>
<feComposite in2="hardAlpha" operator="out"/>
<feColorMatrix type="matrix" values="0 0 0 0 0 0 0 0 0 0 0 0 0 0 0 0 0 0 0.4 0"/>
<feBlend mode="normal" in2="BackgroundImageFix" result="effect1_dropShadow_866_61"/>
<feBlend mode="normal" in="SourceGraphic" in2="effect1_dropShadow_866_61" result="shape"/>
</filter>
<filter id="filter3_d_866_61" x="413.266" y="138.518" width="102.438" height="104.592" filterUnits="userSpaceOnUse" color-interpolation-filters="sRGB">
<feFlood flood-opacity="0" result="BackgroundImageFix"/>
<feColorMatrix in="SourceAlpha" type="matrix" values="0 0 0 0 0 0 0 0 0 0 0 0 0 0 0 0 0 0 127 0" result="hardAlpha"/>
<feOffset dy="15"/>
<feGaussianBlur stdDeviation="7.5"/>
<feComposite in2="hardAlpha" operator="out"/>
<feColorMatrix type="matrix" values="0 0 0 0 0 0 0 0 0 0 0 0 0 0 0 0 0 0 0.16 0"/>
<feBlend mode="normal" in2="BackgroundImageFix" result="effect1_dropShadow_866_61"/>
<feBlend mode="normal" in="SourceGraphic" in2="effect1_dropShadow_866_61" result="shape"/>
</filter>
<clipPath id="clip0_866_61">
<rect width="769" height="343" fill="white"/>
</clipPath>
<clipPath id="clip1_866_61">
<rect width="801.89" height="801.89" fill="white" transform="translate(-60 -161.33)"/>
</clipPath>
</defs>
</svg>
