<svg width="31" height="77" viewBox="0 0 31 77" fill="none" xmlns="http://www.w3.org/2000/svg">
<g clip-path="url(#clip0_866_81)">
<path d="M31.0177 43.0866C30.6249 41.4825 28.7105 40.7681 25.2743 40.9436C21.8381 41.119 20.2919 40.2042 20.6355 38.1989C20.6355 35.1911 20.8564 32.0079 21.2982 28.6491C21.6909 25.2904 22.1327 22.0069 22.6236 18.7985C23.1144 15.5902 23.5808 12.6075 24.0226 9.85031C24.4644 7.04301 24.7344 4.73703 24.8325 2.93234C25.0289 1.97987 24.0717 1.25298 21.9609 0.751678C19.8501 0.300507 17.4938 0.0498505 14.8922 -0.000282288C12.2905 -0.050415 9.88515 0.0999832 7.67618 0.450897C5.46721 0.801804 4.36272 1.32817 4.36272 2.03C4.36272 3.58403 4.55907 5.86496 4.95178 8.87277C5.34449 11.8806 5.81082 15.139 6.35079 18.6482C6.89077 22.1573 7.43074 25.7416 7.97071 29.4011C8.51068 33.0105 8.92793 36.2439 9.22246 39.1013C9.4679 40.6052 8.03207 41.5075 4.91496 41.8083C1.79786 42.1091 0.165673 42.7608 0.0184081 43.7634C-0.128857 45.0668 0.607467 47.5482 2.22738 51.2077C3.84729 54.8672 5.71265 58.627 7.82344 62.487C9.93424 66.3471 11.9959 69.7559 14.0086 72.7136C16.0212 75.6713 17.322 77.1 17.9111 76.9997C18.7947 77.1 19.8255 75.9721 21.0036 73.6159C22.1818 71.2097 23.3844 68.2645 24.6116 64.7805C25.8388 61.2964 27.017 57.5743 28.146 53.614C29.275 49.6537 30.2322 46.1446 31.0177 43.0866ZM4.95178 49.1023C4.21546 47.5984 4.68179 46.5832 6.35079 46.0569C8.0198 45.5305 9.34518 45.0417 10.3269 44.5905C11.456 44.1895 12.1923 43.3122 12.5359 41.9587C12.8795 40.6052 12.9286 39.1514 12.6832 37.5974C12.4868 36.2439 12.1187 33.8125 11.5787 30.3034C11.0878 26.7442 10.5847 23.0972 10.0692 19.3625C9.5538 15.6278 9.12428 12.2816 8.78066 9.32394C8.43705 6.36626 8.36341 4.76209 8.55977 4.51144C8.95247 3.96001 11.0755 3.62163 14.929 3.49631C18.7824 3.37098 20.7582 3.58403 20.8564 4.13547C21.2 5.43885 21.1755 7.49419 20.7827 10.3015C20.39 13.1589 19.9114 16.267 19.3469 19.6257C18.7824 22.9844 18.2792 26.3933 17.8375 29.8523C17.3466 33.2611 17.1502 36.2439 17.2484 38.8005C17.3466 40.9561 18.0583 42.4349 19.3837 43.237C20.7091 44.0391 22.4027 44.5905 24.4644 44.8913C25.7897 44.8913 26.2561 46.2198 25.8634 48.8767C25.5198 51.5837 24.8203 54.5539 23.7649 57.7873C22.7095 61.0207 21.5927 64.016 20.4146 66.7732C19.2365 69.4802 18.5001 70.8838 18.2056 70.9841C17.7638 71.1345 17.0029 70.4076 15.923 68.8034C14.8922 67.1993 13.7386 65.2442 12.4623 62.9382C11.186 60.6322 9.88515 58.2009 8.55977 55.6443C7.23438 53.0876 6.03172 50.9069 4.95178 49.1023Z" fill="#60BAB1"/>
</g>
<defs>
<clipPath id="clip0_866_81">
<rect width="31" height="77" fill="white" transform="matrix(1 0 0 -1 0 77)"/>
</clipPath>
</defs>
</svg>
